<svg width="420" height="88" viewBox="0 0 420 88" fill="none" xmlns="http://www.w3.org/2000/svg">
<g clip-path="url(#clip0_261_2929)">
<path d="M74.0037 26.8358C72.1944 25.7215 69.8422 25.7215 67.852 26.8358L53.7386 35.3786L44.1489 40.95L30.0358 49.493C28.2265 50.6073 25.8742 50.6073 23.8839 49.493L12.6657 42.8073C10.8563 41.6931 9.58973 39.6502 9.58973 37.4215V24.2358C9.58973 22.0072 10.6754 19.9644 12.6657 18.8501L23.7029 12.35C25.5123 11.2357 27.8644 11.2357 29.8549 12.35L40.8921 18.8501C42.7014 19.9644 43.968 22.0072 43.968 24.2358V32.7787L53.5577 27.0215V18.4786C53.5577 16.25 52.4723 14.2072 50.4818 13.0929L30.0358 0.835718C28.2265 -0.278573 25.8742 -0.278573 23.8839 0.835718L3.07596 13.0929C1.08563 14.2072 0 16.25 0 18.4786V43.1787C0 45.4072 1.08563 47.4501 3.07596 48.5644L23.8839 60.8215C25.6933 61.936 28.0456 61.936 30.0358 60.8215L44.1489 52.4643L53.7386 46.7073L67.852 38.3501C69.6613 37.2359 72.0135 37.2359 74.0037 38.3501L85.0409 44.8502C86.8505 45.9645 88.1171 48.0074 88.1171 50.2358V63.4216C88.1171 65.6501 87.0314 67.693 85.0409 68.8073L74.0037 75.4932C72.1944 76.6075 69.8422 76.6075 67.852 75.4932L56.8147 68.9931C55.0052 67.8789 53.7386 65.836 53.7386 63.6072V55.0645L44.1489 60.8215V69.3645C44.1489 71.593 45.2346 73.6359 47.225 74.7501L68.0329 87.0075C69.8422 88.1218 72.1944 88.1218 74.1846 87.0075L94.9927 74.7501C96.802 73.6359 98.0686 71.593 98.0686 69.3645V44.6644C98.0686 42.4359 96.9829 40.393 94.9927 39.2788L74.0037 26.8358Z" fill="#7B3FE4"/>
<path d="M136.272 79.9442V59.4383C138.479 62.2383 142.483 63.803 147.142 63.803C158.991 63.803 167.001 55.3207 167.001 42.3913C167.001 29.4619 159.645 20.9795 148.122 20.9795C142.81 20.9795 138.724 22.956 136.272 26.1677V21.6383H124.913V79.9442H136.272ZM145.752 53.9207C139.623 53.9207 135.619 49.3089 135.619 42.3913C135.619 35.3913 139.623 30.7795 145.752 30.7795C151.718 30.7795 155.804 35.3913 155.804 42.3913C155.804 49.3089 151.718 53.9207 145.752 53.9207Z" fill="#0E0E10"/>
<path d="M192.795 63.803C205.462 63.803 214.534 54.7442 214.534 42.3913C214.534 30.0383 205.462 20.9795 192.795 20.9795C180.128 20.9795 171.057 30.0383 171.057 42.3913C171.057 54.7442 180.128 63.803 192.795 63.803ZM192.795 53.9207C186.666 53.9207 182.498 49.2266 182.498 42.3913C182.498 35.4736 186.666 30.7795 192.795 30.7795C198.925 30.7795 203.093 35.4736 203.093 42.3913C203.093 49.2266 198.925 53.9207 192.795 53.9207Z" fill="#0E0E10"/>
<path d="M232.761 63.1442V3.60303H221.401V63.1442H232.761Z" fill="#0E0E10"/>
<path d="M266.908 21.6383L258.327 48.403L249.664 21.6383H238.059L253.015 62.8148L246.967 79.9442H257.837L263.639 62.9795L278.595 21.6383H266.908Z" fill="#0E0E10"/>
<path d="M310.498 25.756C308.209 22.8736 304.124 20.9795 299.139 20.9795C287.124 20.9795 279.852 29.4619 279.852 42.3913C279.852 55.3207 287.124 63.803 299.301 63.803C304.124 63.803 308.453 61.9913 310.58 58.9442V64.3795C310.58 68.2501 308.047 70.9677 304.613 70.9677H285.652V79.9442H306.411C315.727 79.9442 321.94 74.2618 321.94 65.6148V21.6383H310.498V25.756ZM301.099 53.9207C295.051 53.9207 291.046 49.3913 291.046 42.3913C291.046 35.3913 295.051 30.7795 301.099 30.7795C307.229 30.7795 311.234 35.3913 311.234 42.3913C311.234 49.3913 307.229 53.9207 301.099 53.9207Z" fill="#0E0E10"/>
<path d="M350.576 63.803C363.245 63.803 372.315 54.7442 372.315 42.3913C372.315 30.0383 363.245 20.9795 350.576 20.9795C337.911 20.9795 328.838 30.0383 328.838 42.3913C328.838 54.7442 337.911 63.803 350.576 63.803ZM350.576 53.9207C344.447 53.9207 340.28 49.2266 340.28 42.3913C340.28 35.4736 344.447 30.7795 350.576 30.7795C356.706 30.7795 360.873 35.4736 360.873 42.3913C360.873 49.2266 356.706 53.9207 350.576 53.9207Z" fill="#0E0E10"/>
<path d="M389.971 63.1442V40.4148C389.971 35.0618 393.485 31.1913 398.47 31.1913C403.208 31.1913 406.395 34.8148 406.395 39.8383V63.1442H417.837V37.2854C417.837 27.7324 411.789 20.9795 402.473 20.9795C396.834 20.9795 392.258 23.3677 389.971 27.403V21.6383H378.53V63.1442H389.971Z" fill="#0E0E10"/>
</g>
<defs>
<clipPath id="clip0_261_2929">
<rect width="420" height="87.8431" fill="white"/>
</clipPath>
</defs>
</svg>
